<?xml version="1.0" encoding="iso-8859-1"?>
<!-- Uploaded to: SVG Repo, www.svgrepo.com, Generator: SVG Repo Mixer Tools -->
<svg fill="#000000" height="800px" width="800px" version="1.1" id="Layer_1" xmlns="http://www.w3.org/2000/svg" xmlns:xlink="http://www.w3.org/1999/xlink" 
	 viewBox="0 0 512 512" xml:space="preserve">
<g>
	<g>
		<g>
			<path d="M490.667,0H21.333C9.536,0,0,9.557,0,21.333v341.333C0,374.443,9.536,384,21.333,384h469.333
				c11.797,0,21.333-9.557,21.333-21.333V21.333C512,9.557,502.464,0,490.667,0z"/>
			<path d="M469.333,405.333H42.667c-11.797,0-21.333,9.557-21.333,21.333S30.869,448,42.667,448h426.667
				c11.797,0,21.333-9.557,21.333-21.333S481.131,405.333,469.333,405.333z"/>
			<path d="M426.667,469.333H85.333c-11.797,0-21.333,9.557-21.333,21.333S73.536,512,85.333,512h341.333
				c11.797,0,21.333-9.557,21.333-21.333S438.464,469.333,426.667,469.333z"/>
		</g>
	</g>
</g>
</svg>