<?xml version="1.0" encoding="iso-8859-1"?>
<!-- Uploaded to: SVG Repo, www.svgrepo.com, Generator: SVG Repo Mixer Tools -->
<!DOCTYPE svg PUBLIC "-//W3C//DTD SVG 1.1//EN" "http://www.w3.org/Graphics/SVG/1.1/DTD/svg11.dtd">
<svg fill="#000000" height="800px" width="800px" version="1.1" id="Capa_1" xmlns="http://www.w3.org/2000/svg" xmlns:xlink="http://www.w3.org/1999/xlink" 
	 viewBox="0 0 297 297" xml:space="preserve">
<g>
	<path d="M252.347,0H44.653c-5.56,0-10.067,4.508-10.067,10.067v215.165c0,2.672,1.061,5.232,2.949,7.121l61.714,61.699
		c1.889,1.887,4.449,2.947,7.118,2.947h145.979c5.56,0,10.067-4.508,10.067-10.067V10.067C262.414,4.508,257.906,0,252.347,0z
		 M68.963,235.301H96.3v27.33L68.963,235.301z M242.279,276.866H116.435v-51.634c0-5.559-4.508-10.066-10.067-10.066H54.721V20.135
		h187.559V276.866z"/>
	<path d="M79.269,72.049h86.537c5.56,0,10.066-4.507,10.066-10.066c0-5.56-4.507-10.067-10.066-10.067H79.269
		c-5.56,0-10.066,4.507-10.066,10.067C69.202,67.542,73.709,72.049,79.269,72.049z"/>
	<path d="M200.422,72.049h17.309c5.56,0,10.066-4.507,10.066-10.066c0-5.56-4.507-10.067-10.066-10.067h-17.309
		c-5.56,0-10.067,4.507-10.067,10.067C190.354,67.542,194.862,72.049,200.422,72.049z"/>
	<path d="M79.269,123.962h86.537c5.56,0,10.066-4.508,10.066-10.067c0-5.561-4.507-10.067-10.066-10.067H79.269
		c-5.56,0-10.066,4.507-10.066,10.067C69.202,119.454,73.709,123.962,79.269,123.962z"/>
	<path d="M200.422,123.962h17.309c5.56,0,10.066-4.508,10.066-10.067c0-5.561-4.507-10.067-10.066-10.067h-17.309
		c-5.56,0-10.067,4.507-10.067,10.067C190.354,119.454,194.862,123.962,200.422,123.962z"/>
	<path d="M79.269,175.87h86.537c5.56,0,10.066-4.507,10.066-10.066s-4.507-10.067-10.066-10.067H79.269
		c-5.56,0-10.066,4.508-10.066,10.067S73.709,175.87,79.269,175.87z"/>
	<path d="M200.422,175.87h17.309c5.56,0,10.066-4.507,10.066-10.066s-4.507-10.067-10.066-10.067h-17.309
		c-5.56,0-10.067,4.508-10.067,10.067S194.862,175.87,200.422,175.87z"/>
	<path d="M183.115,227.783h34.616c5.56,0,10.066-4.507,10.066-10.066c0-5.561-4.507-10.067-10.066-10.067h-34.616
		c-5.56,0-10.066,4.507-10.066,10.067C173.049,223.276,177.556,227.783,183.115,227.783z"/>
</g>
</svg>