<?xml version="1.0" encoding="utf-8"?><!-- Uploaded to: SVG Repo, www.svgrepo.com, Generator: SVG Repo Mixer Tools -->
<svg fill="#000000" width="800px" height="800px" viewBox="0 0 24 24" id="gallery" data-name="Flat Color" xmlns="http://www.w3.org/2000/svg" class="icon flat-color"><rect id="primary" x="2" y="3" width="20" height="18" rx="2" style="fill: rgb(0, 0, 0);"></rect><path id="secondary" d="M22,17.71V19a2,2,0,0,1-2,2H4a2,2,0,0,1-2-2V16.73A1,1,0,0,1,2.29,16L8,10.31a1,1,0,0,1,1.42,0l4.07,4.08,2.09-2.1a1,1,0,0,1,1.42,0L21.71,17A1,1,0,0,1,22,17.71ZM15,6a1.5,1.5,0,1,0,1.5,1.5A1.5,1.5,0,0,0,15,6Z" style="fill: rgb(44, 169, 188);"></path></svg>