<?xml version="1.0" encoding="utf-8"?><!-- Uploaded to: SVG Repo, www.svgrepo.com, Generator: SVG Repo Mixer Tools -->
<svg width="800px" height="800px" viewBox="0 0 24 24" fill="none" xmlns="http://www.w3.org/2000/svg">
<rect x="13" y="7" width="4" height="4" rx="2" stroke="#0095FF" stroke-width="1.5"/>
<path d="M3.35288 15.0496L2.6227 15.2209L3.35288 15.0496ZM3.35288 8.95043L2.6227 8.77915L3.35288 8.95043ZM20.6471 8.95044L19.9169 9.12171L20.6471 8.95044ZM20.6471 15.0496L19.9169 14.8783L20.6471 15.0496ZM15.0496 20.6471L14.8783 19.9169L15.0496 20.6471ZM8.95044 20.6471L9.12171 19.9169L8.95044 20.6471ZM8.95043 3.35288L9.12171 4.08306L8.95043 3.35288ZM15.0496 3.35288L14.8783 4.08306L15.0496 3.35288ZM4.18776 16.671C3.89487 16.9639 3.89487 17.4388 4.18776 17.7317C4.48065 18.0246 4.95553 18.0246 5.24842 17.7317L4.18776 16.671ZM6.45698 15.4625L5.92665 14.9321L6.45698 15.4625ZM12.3417 15.4625L11.8113 15.9928L12.3417 15.4625ZM14.7849 16.497L15.3152 17.0273L14.7849 16.497ZM16.1509 20.3324C16.4438 20.6253 16.9187 20.6253 17.2116 20.3324C17.5045 20.0395 17.5045 19.5646 17.2116 19.2717L16.1509 20.3324ZM19.3891 16.7059L18.813 17.186L19.3891 16.7059ZM19.2259 17.6815C19.4911 17.9997 19.964 18.0427 20.2822 17.7775C20.6004 17.5124 20.6434 17.0394 20.3782 16.7212L19.2259 17.6815ZM4.08306 14.8783C3.63898 12.9851 3.63898 11.0149 4.08306 9.12171L2.6227 8.77915C2.12577 10.8976 2.12577 13.1024 2.6227 15.2209L4.08306 14.8783ZM19.9169 9.12171C20.361 11.0149 20.361 12.9851 19.9169 14.8783L21.3773 15.2208C21.8742 13.1024 21.8742 10.8976 21.3773 8.77916L19.9169 9.12171ZM14.8783 19.9169C12.9851 20.361 11.0149 20.361 9.12171 19.9169L8.77916 21.3773C10.8976 21.8742 13.1024 21.8742 15.2208 21.3773L14.8783 19.9169ZM9.12171 4.08306C11.0149 3.63898 12.9851 3.63898 14.8783 4.08306L15.2208 2.6227C13.1024 2.12577 10.8976 2.12577 8.77916 2.6227L9.12171 4.08306ZM9.12171 19.9169C6.62161 19.3305 4.6695 17.3784 4.08306 14.8783L2.6227 15.2209C3.33924 18.2756 5.72441 20.6608 8.77916 21.3773L9.12171 19.9169ZM15.2208 21.3773C18.2756 20.6608 20.6608 18.2756 21.3773 15.2208L19.9169 14.8783C19.3305 17.3784 17.3784 19.3305 14.8783 19.9169L15.2208 21.3773ZM14.8783 4.08306C17.3784 4.6695 19.3305 6.62161 19.9169 9.12171L21.3773 8.77916C20.6608 5.72441 18.2756 3.33924 15.2208 2.6227L14.8783 4.08306ZM8.77916 2.6227C5.72441 3.33924 3.33924 5.72441 2.6227 8.77915L4.08306 9.12171C4.6695 6.6216 6.62161 4.6695 9.12171 4.08306L8.77916 2.6227ZM5.24842 17.7317L6.98731 15.9928L5.92665 14.9321L4.18776 16.671L5.24842 17.7317ZM11.8113 15.9928L13.5502 17.7317L14.6109 16.671L12.872 14.9321L11.8113 15.9928ZM14.6109 17.7317L15.3152 17.0273L14.2546 15.9667L13.5502 16.671L14.6109 17.7317ZM13.5502 17.7317L16.1509 20.3324L17.2116 19.2717L14.6109 16.671L13.5502 17.7317ZM18.813 17.186L19.2259 17.6815L20.3782 16.7212L19.9653 16.2257L18.813 17.186ZM15.3152 17.0273C16.301 16.0416 17.9205 16.115 18.813 17.186L19.9653 16.2257C18.5081 14.4771 15.8641 14.3572 14.2546 15.9667L15.3152 17.0273ZM6.98731 15.9928C8.31943 14.6607 10.4792 14.6607 11.8113 15.9928L12.872 14.9321C10.9541 13.0142 7.84455 13.0142 5.92665 14.9321L6.98731 15.9928Z" fill="#363853"/>
</svg>